Coordinates
version=1
nRows=14
nColumns=42
inDegrees=yes

Units are S.I. units (second, meters, Newtons, ...)
If the header above contains a line with 'inDegrees', this indicates whether rotational values are in degrees (yes) or radians (no).

endheader
time	pelvis_tilt	pelvis_list	pelvis_rotation	pelvis_tx	pelvis_ty	pelvis_tz	hip_flexion_r	hip_adduction_r	hip_rotation_r	knee_angle_r	knee_adduction_r	knee_angle_r_beta	ankle_angle_r	subtalar_angle_r	mtp_angle_r	hip_flexion_l	hip_adduction_l	hip_rotation_l	knee_angle_l	knee_adduction_l	knee_angle_l_beta	ankle_angle_l	subtalar_angle_l	mtp_angle_l	lumbar_extension	lumbar_bending	lumbar_rotation	arm_flex_r	arm_add_r	arm_rot_r	elbow_flex_r	pro_sup_r	wrist_flex_r	wrist_dev_r	arm_flex_l	arm_add_l	arm_rot_l	elbow_flex_l	pro_sup_l	wrist_flex_l	wrist_dev_l
      0.14000000	      8.36881316	      3.04560387	      7.72906795	     -0.20312048	      0.87375032	      0.40384070	    -10.86107753	      1.24219170	    -24.65785221	     24.72236669	     -2.96860509	      0.43148670	     28.11972274	      9.60216763	     -9.38667805	     20.83832780	     -3.48419887	     -1.02571637	     26.81459429	      5.01737105	      0.46800296	      5.09339066	     17.67796437	     -9.38667805	    -20.31536881	     -5.40609687	      1.06828687	     15.98555545	    -35.18957133	     -7.11202306	     96.06583652	     90.00000001	      0.00000000	      0.00000000	    -10.01745879	    -18.52471979	     10.75667673	     86.40636499	     90.00000001	      0.00000000	      0.00000000
      0.15000000	      8.00416078	      3.09560818	      7.73402515	     -0.19880172	      0.87305615	      0.40312881	    -10.81900409	      1.18092500	    -24.72055161	     24.64814775	     -3.01337771	      0.43019133	     28.13769074	      9.54341303	     -9.37884114	     20.67978255	     -3.48004959	     -1.28830514	     26.64184583	      5.15586330	      0.46498793	      5.15926296	     17.71152360	     -9.37884114	    -19.97073911	     -5.56323497	      0.99312192	     16.04331201	    -35.07543326	     -7.09969203	     96.32035765	     90.00000001	      0.00000000	      0.00000000	    -10.19924303	    -18.28686821	     10.95241816	     86.32344948	     90.00000001	      0.00000000	      0.00000000
      0.16000000	      7.63503992	      3.27692081	      7.75494499	     -0.19453435	      0.87256708	      0.40248020	    -10.75418754	      0.96386291	    -24.81044502	     24.68132700	     -3.03054139	      0.43077042	     28.12967727	      9.31917351	     -9.34483650	     20.55870544	     -3.33723478	     -1.70357334	     26.47218849	      5.17953354	      0.46202685	      5.33462505	     18.18085349	     -9.34483650	    -19.68624673	     -5.85589697	      0.96999864	     15.89939912	    -34.84975701	     -7.39174465	     97.26070005	     90.00000001	      0.00000000	      0.00000000	    -10.21316872	    -18.15673229	     11.31972764	     85.93072443	     90.00000001	      0.00000000	      0.00000000
      0.17000000	      7.28067030	      3.37530380	      7.74472180	     -0.19022635	      0.87222451	      0.40187347	    -10.71896112	      0.86892071	    -24.81277248	     24.61481745	     -3.08041459	      0.42960961	     27.97421965	      8.96364197	     -9.26370885	     20.58647495	     -3.38174652	     -2.33697042	     26.55604782	      5.20107937	      0.46349047	      5.59863295	     19.28662752	     -9.26370885	    -19.41258550	     -6.06676704	      1.17958657	     15.22961718	    -34.75347663	     -8.45337015	     98.28259367	     90.00000001	      0.00000000	      0.00000000	     -9.87564589	    -18.05725424	     12.02964926	     85.45788066	     90.00000001	      0.00000000	      0.00000000
      0.18000000	      6.94910616	      3.52462941	      7.77736264	     -0.18602826	      0.87211174	      0.40130189	    -10.72610707	      0.72674229	    -24.87979289	     24.53187189	     -3.10791418	      0.42816194	     27.92323502	      8.90987595	     -9.25843935	     20.59840331	     -3.39339993	     -2.49891888	     26.58305921	      5.47181341	      0.46396191	      5.66185329	     19.35118167	     -9.25843935	    -19.18594983	     -6.33953123	      1.11322439	     15.29785874	    -34.77361606	     -8.54059001	     98.42295846	     90.00000001	      0.00000000	      0.00000000	     -9.86415074	    -17.84568049	     12.16936903	     85.44481410	     90.00000001	      0.00000000	      0.00000000
      0.19000000	      6.55432079	      3.65959768	      7.78705133	     -0.18182121	      0.87206503	      0.40079182	    -10.58613809	      0.53680221	    -25.08848615	     24.59728726	     -3.16064161	      0.42930365	     27.50187353	      8.52907008	     -9.19503488	     20.78176749	     -3.41709410	     -2.98844009	     26.77530602	      5.52070768	      0.46731725	      6.03395408	     20.43993730	     -9.19503488	    -18.91509140	     -6.61103094	      1.41839088	     14.54733569	    -34.66340155	     -9.84209040	     99.57952190	     90.00000001	      0.00000000	      0.00000000	     -9.39912428	    -17.72231478	     12.84069805	     84.92799766	     90.00000001	      0.00000000	      0.00000000
      0.20000000	      6.26146338	      3.80159439	      7.80021801	     -0.17767793	      0.87231027	      0.40025166	    -10.61087953	      0.37816120	    -25.10870168	     24.54310514	     -3.17498935	      0.42835799	     27.43268767	      8.50658304	     -9.19117783	     20.81047838	     -3.45465499	     -3.06193560	     26.84093750	      5.79833811	      0.46846273	      6.07225643	     20.51897299	     -9.19117783	    -18.75572950	     -6.87253154	      1.40114951	     14.62048120	    -34.75532524	     -9.95692899	     99.67551863	     90.00000001	      0.00000000	      0.00000000	     -9.30349714	    -17.53641942	     12.94211426	     84.95632001	     90.00000001	      0.00000000	      0.00000000
      0.21000000	      5.87122739	      3.89319524	      7.75689151	     -0.17353046	      0.87254910	      0.39975502	    -10.41084877	      0.14963755	    -25.28880020	     24.73053136	     -3.19725051	      0.43162920	     26.71580733	      8.28099627	     -9.14424170	     20.99727790	     -3.52484158	     -3.33958258	     26.98820545	      5.90360574	      0.47103304	      6.44122840	     21.53268178	     -9.14424170	    -18.48861802	     -7.11009261	      1.88129782	     13.72186625	    -34.84978612	    -11.33746757	    100.69455848	     90.00000001	      0.00000000	      0.00000000	     -8.75783045	    -17.35290514	     13.48414188	     84.63696314	     90.00000001	      0.00000000	      0.00000000
      0.22000000	      5.60363884	      3.98141928	      7.75165114	     -0.16942627	      0.87306365	      0.39918783	    -10.41655448	     -0.01762787	    -25.27153055	     24.74643458	     -3.16559084	      0.43190676	     26.61338807	      8.27830288	     -9.13979823	     21.00120912	     -3.61914549	     -3.39533797	     27.02593123	      6.17262640	      0.47169148	      6.47247435	     21.65401284	     -9.13979823	    -18.36370706	     -7.30544498	      1.90029287	     13.78818506	    -34.98379161	    -11.51161400	    100.80769560	     90.00000001	      0.00000000	      0.00000000	     -8.56038329	    -17.14156459	     13.58340730	     84.70253630	     90.00000001	      0.00000000	      0.00000000
      0.23000000	      5.29815242	      3.98294141	      7.66916365	     -0.16529561	      0.87363763	      0.39866087	    -10.22611973	     -0.20651143	    -25.21795444	     25.06213060	     -3.11179859	      0.43741670	     25.74068387	      8.03165811	     -9.08172746	     21.04330137	     -3.76652258	     -3.78178970	     27.05834177	      6.16757259	      0.47225715	      6.78611576	     23.03643118	     -9.08172746	    -18.17981762	     -7.43438824	      2.57020385	     12.55225513	    -35.12091514	    -13.35103746	    102.04963278	     90.00000001	      0.00000000	      0.00000000	     -7.84658394	    -16.91883585	     14.16475430	     84.44407988	     90.00000001	      0.00000000	      0.00000000
      0.24000000	      5.02690945	      3.97284029	      7.53949961	     -0.16125259	      0.87437319	      0.39806235	    -10.03162546	     -0.43005425	    -25.03380841	     25.44145956	     -3.01142006	      0.44403724	     25.28264695	      8.07313159	     -9.06806935	     20.93476894	     -3.91821552	     -3.88333336	     26.88666993	      6.34063585	      0.46926092	      6.86193474	     23.38550331	     -9.06806935	    -18.02320397	     -7.52923198	      2.82845975	     12.42194115	    -35.35104718	    -13.71844879	    102.22000527	     90.00000001	      0.00000000	      0.00000000	     -7.55441006	    -16.67637475	     14.26380644	     84.58693391	     90.00000001	      0.00000000	      0.00000000
      0.25000000	      4.74587235	      3.93812908	      7.50731830	     -0.15704885	      0.87521919	      0.39737951	     -9.81165289	     -0.61703483	    -24.89585297	     25.85752861	     -2.92065495	      0.45129901	     24.28772999	      7.67549829	     -9.01737142	     20.84798361	     -4.00142919	     -4.37157961	     26.73115940	      6.17779343	      0.46654674	      7.04606396	     24.60658510	     -9.01737142	    -17.84592361	     -7.60817485	      3.26410593	     11.35144824	    -35.46920483	    -15.05416813	    103.16200012	     90.00000001	      0.00000000	      0.00000000	     -7.05699907	    -16.40584134	     14.45876520	     84.57564563	     90.00000001	      0.00000000	      0.00000000
      0.26000000	      4.49939206	      3.85169852	      7.42680660	     -0.15290447	      0.87621957	      0.39667051	     -9.53493987	     -0.78143732	    -24.40352723	     26.43700066	     -2.72461035	      0.46141271	     23.36301687	      7.10338364	     -8.94126344	     20.65010563	     -4.16187316	     -4.96631113	     26.45287670	      6.05468225	      0.46168980	      7.16497018	     25.84468366	     -8.94126344	    -17.70725721	     -7.61039471	      3.61718179	     10.63300734	    -35.56618680	    -16.07901847	    103.79734756	     90.00000001	      0.00000000	      0.00000000	     -6.64792692	    -16.20987401	     14.63006087	     84.63375745	     90.00000001	      0.00000000	      0.00000000
      0.27000000	      4.23242355	      3.79469344	      7.39887700	     -0.14873621	      0.87734715	      0.39583963	     -9.12996127	     -1.08316657	    -24.16890188	     27.25910729	     -2.52645915	      0.47576117	     22.32171801	      6.97095683	     -8.91797177	     20.35070710	     -4.17090348	     -5.29161353	     25.93579899	      5.93527425	      0.45266509	      7.23098570	     26.33306802	     -8.91797177	    -17.52556141	     -7.65387890	      3.77073332	     10.11403748	    -35.72015087	    -16.44671343	    104.03455491	     90.00000001	      0.00000000	      0.00000000	     -6.41526030	    -15.98729835	     14.50524201	     84.88552475	     90.00000001	      0.00000000	      0.00000000
